<svg width="24" height="24" xmlns="http://www.w3.org/2000/svg" fill-rule="evenodd" clip-rule="evenodd"><path d="M24 19v-7c0-.265-.105-.52-.293-.707-.187-.188-.442-.293-.707-.293h-22c-.265 0-.52.105-.707.293-.188.187-.293.442-.293.707v7h1v-2h22v2h1zm-1-6.5c0-.133-.053-.26-.146-.354-.094-.093-.221-.146-.354-.146h-21c-.133 0-.26.053-.354.146-.093.094-.146.221-.146.354v3.5h22v-3.5zm-20-2.5v-3.5c0-.276.224-.5.5-.5h17c.276 0 .5.224.5.5v3.5h1v-4c0-.265-.105-.52-.293-.707-.187-.188-.442-.293-.707-.293h-18c-.265 0-.52.105-.707.293-.188.187-.293.442-.293.707v4h1zm2 0h6v-2c0-.552-.448-1-1-1h-4c-.552 0-1 .448-1 1v2zm8 0h6v-2c0-.552-.448-1-1-1h-4c-.552 0-1 .448-1 1v2zm-3-1v-.6c0-.221-.179-.4-.4-.4h-3.2c-.221 0-.4.179-.4.4v.6h4zm8 0v-.6c0-.221-.179-.4-.4-.4h-3.2c-.221 0-.4.179-.4.4v.6h4z"/></svg>