<?xml version="1.0" encoding="iso-8859-1"?>
<!-- Generator: Adobe Illustrator 19.0.0, SVG Export Plug-In . SVG Version: 6.00 Build 0)  -->
<svg version="1.1" id="Layer_1" xmlns="http://www.w3.org/2000/svg" xmlns:xlink="http://www.w3.org/1999/xlink" x="0px" y="0px"
	 viewBox="0 0 348.198 348.198" style="enable-background:new 0 0 348.198 348.198;" xml:space="preserve">
<polygon points="348.198,113.995 348.198,0 234.204,0 234.204,30 297.012,30 174.099,152.913 51.187,30 113.995,30 113.995,0 0,0 
	0,113.995 30,113.995 30,51.24 152.886,174.126 30,297.011 30,234.203 0,234.203 0,348.198 113.995,348.198 113.995,318.198 
	51.239,318.198 174.099,195.339 296.959,318.198 234.204,318.198 234.204,348.198 348.198,348.198 348.198,234.203 318.198,234.203 
	318.198,297.011 195.312,174.126 318.198,51.24 318.198,113.995 "/>
<g>
</g>
<g>
</g>
<g>
</g>
<g>
</g>
<g>
</g>
<g>
</g>
<g>
</g>
<g>
</g>
<g>
</g>
<g>
</g>
<g>
</g>
<g>
</g>
<g>
</g>
<g>
</g>
<g>
</g>
</svg>
