<?xml version="1.0" encoding="utf-8"?>
<!-- Generator: Adobe Illustrator 23.0.3, SVG Export Plug-In . SVG Version: 6.00 Build 0)  -->
<svg version="1.1" id="Icons" xmlns="http://www.w3.org/2000/svg" xmlns:xlink="http://www.w3.org/1999/xlink" x="0px" y="0px"
	 viewBox="0 0 32 32" style="enable-background:new 0 0 32 32;" xml:space="preserve">
<style type="text/css">
	.st0{fill:none;stroke:#231f20;stroke-width:1;stroke-linecap:round;stroke-linejoin:round;stroke-miterlimit:10;}
	.st1{fill:none;stroke:#231f20;stroke-width:1;stroke-linejoin:round;stroke-miterlimit:10;}
</style>
<path class="st0" d="M20,4c-4.4,0-8,3.6-8,8c0,0.9,0.2,1.8,0.4,2.6L4,23v5h5c0-1.5,0-3,0-3h2c0-1.1,0-2,0-2h2c0-1.1,0-2,0-2h3
	l1.4-1.4c0.8,0.3,1.7,0.4,2.6,0.4c4.4,0,8-3.6,8-8S24.4,4,20,4z"/>
<circle class="st0" cx="21" cy="11" r="2"/>
</svg>
