<?xml version="1.0" encoding="UTF-8" standalone="no"?> <svg xmlns="http://www.w3.org/2000/svg" viewBox="0 0 64 64"><defs><style>.cls-1{fill:#231f20;}</style></defs><title>Local, location, marketing, optimization, search, seo_2</title><g id="_1" data-name="1"><path class="cls-1" d="M31.875,46.954h0a1,1,0,0,1-.8-.405c-1-1.361-1.991-2.736-2.977-4.11-.934-1.3-1.867-2.6-2.817-3.891-.558-.757-1.14-1.506-1.722-2.254-3.4-4.366-6.91-8.882-5.667-15.176A14.261,14.261,0,0,1,41.956,13.81a14.363,14.363,0,0,1,4.073,11.8,17.851,17.851,0,0,1-3.846,8.35h0c-.528.7-1.075,1.386-1.617,2.051-1.964,2.406-3.835,4.978-5.643,7.465-.68.935-1.36,1.87-2.044,2.8l-.2.272A1,1,0,0,1,31.875,46.954Zm0-35.314a12.218,12.218,0,0,0-8.668,3.584,12.362,12.362,0,0,0-3.357,6.281c-1.067,5.4,2.017,9.364,5.282,13.561.594.762,1.186,1.525,1.755,2.3.954,1.3,1.892,2.6,2.831,3.911.717,1,1.433,2,2.158,2.993q.717-.979,1.429-1.96c1.825-2.51,3.713-5.106,5.712-7.555.524-.643,1.054-1.3,1.564-1.985h0a16.027,16.027,0,0,0,3.461-7.391,12.35,12.35,0,0,0-3.5-10.151A12.217,12.217,0,0,0,31.875,11.64Z"/><path class="cls-1" d="M31.875,28.815a5.535,5.535,0,1,1,5.534-5.535A5.541,5.541,0,0,1,31.875,28.815Zm0-9.069a3.535,3.535,0,1,0,3.534,3.534A3.538,3.538,0,0,0,31.875,19.746Z"/><path class="cls-1" d="M52,53H12a1,1,0,0,1-.895-1.447l6-12A1,1,0,0,1,18,39h6a1,1,0,0,1,0,2H18.618l-5,10H50.259L44.426,41H40a1,1,0,0,1,0-2h5a1,1,0,0,1,.864.5l7,12A1,1,0,0,1,52,53Z"/></g></svg>