<svg id="Layer_1" data-name="Layer 1" xmlns="http://www.w3.org/2000/svg" viewBox="0 0 100 100"><title>Artboard 9</title><path d="M71.07,39.27,50.61,24.91a1.5,1.5,0,0,0-1.74,0L28.92,39.28A1.5,1.5,0,0,0,29.8,42H33V69.5A1.5,1.5,0,0,0,34.5,71h31A1.5,1.5,0,0,0,67,69.5V42h3.21a1.5,1.5,0,0,0,.86-2.73ZM64,40.5V68H36V40.5A1.5,1.5,0,0,0,34.5,39h-.05L49.76,28,65.46,39A1.5,1.5,0,0,0,64,40.5Z"/><path d="M43,45.5v12A1.5,1.5,0,0,0,44.5,59h12A1.5,1.5,0,0,0,58,57.5v-12A1.5,1.5,0,0,0,56.5,44h-12A1.5,1.5,0,0,0,43,45.5ZM46,47h9v9H46Z"/><path d="M84.26,21.57a1.5,1.5,0,0,0-.48-1.07,1.52,1.52,0,0,0-1.1-.4C57.91,21.51,51.93,4.74,51.69,4a1.5,1.5,0,0,0-1.42-1h-.54a1.51,1.51,0,0,0-1.42,1c-.24.71-6.24,17.49-31,16.09a1.5,1.5,0,0,0-1.58,1.46c0,.89-.53,21.93,0,29.16C16.87,66,21.63,83.4,48.32,95.86A1.49,1.49,0,0,0,49,96H51a1.49,1.49,0,0,0,.63-.14C78.37,83.4,83.13,66,84.26,50.73,84.79,43.5,84.28,22.46,84.26,21.57Zm-3,28.93C80.2,64.9,75.73,81.2,50.71,93H49.29c-25-11.8-29.49-28.1-30.56-42.49-.44-6-.14-22.26,0-27.33l1.45,0c19,0,27.12-10.75,29.85-15.74,2.79,5.11,11.2,16.27,31.3,15.72C81.41,28.24,81.71,44.53,81.27,50.5Z"/></svg>