<?xml version="1.0" encoding="utf-8"?><svg version="1.1" id="Layer_1" xmlns="http://www.w3.org/2000/svg" xmlns:xlink="http://www.w3.org/1999/xlink" x="0px" y="0px" viewBox="0 0 122.88 103.57" style="enable-background:new 0 0 122.88 103.57" xml:space="preserve"><style type="text/css">.st0{fill-rule:evenodd;clip-rule:evenodd;}</style><g><path class="st0" d="M86.64,55.55c9.91-7.55,24.06-5.65,31.62,4.26c7.55,9.91,5.65,24.06-4.26,31.62 c-9.91,7.55-24.06,5.65-31.62-4.26c-1.95-2.56-3.27-5.4-3.98-8.34l-14.25,1.77c-1.4,0.19-2.68-0.79-2.87-2.19 c-0.19-1.4,0.79-2.68,2.19-2.87l14.3-1.77C77.68,66.87,80.75,60.04,86.64,55.55L86.64,55.55z M64.16,2.25 c10.7-5.3,23.68-0.92,28.98,9.78c5.3,10.7,0.92,23.68-9.78,28.98c-8.31,4.11-17.98,2.4-24.37-3.58l-10.22,9.01 c-1.05,0.94-2.66,0.85-3.6-0.2c-0.94-1.05-0.85-2.66,0.2-3.6l10.33-9.11c-0.48-0.73-0.92-1.5-1.32-2.3 C49.08,20.53,53.46,7.55,64.16,2.25L64.16,2.25z M4.42,73.89c-2.26,1.03-2.93,3.59-2.52,6.32c0.19,1.25,0.6,2.51,1.17,3.72 c0.58,1.21,1.32,2.32,2.2,3.24c2.01,2.12,4.7,3.2,7.48,1.8c0.22-0.1,0.45-0.12,0.65-0.05c0.05-0.02,0.08-0.05,0.15-0.07 c0.71-0.33,1.35-0.63,1.93-0.91c0.66-0.3,1.28-0.57,1.87-0.83c0.46-0.19,0.99,0.03,1.17,0.47c0.02,0.03,0.03,0.07,0.03,0.1 l0.42,1.12c1.08,2.9,2.12,5.71,3.32,7.92c0.02,0.03,0.17,0.35,0.34,0.65c0.73,1.4,1.53,2.91,2.39,3.74 c0.76,0.72,1.69,0.84,2.95-0.44c0.23-0.28,0.46-0.55,0.69-0.81c0.74-0.84,1.47-1.67,1.64-2.78c-0.23-0.24-0.62-0.34-1.01-0.45 c-1.3-0.36-2.58-0.7-2.62-3.33l0-0.38c0-0.77-0.02-1.16-0.07-1.31c-0.03-0.09-0.25-0.23-0.66-0.52l-0.16-0.1 c-0.81-0.57-1.21-1.48-1.33-2.5c-0.15-1.21,0.06-2.59,0.33-3.59c0.08-0.32,0.32-0.55,0.63-0.64c8.98-2.52,14.78-1.7,19.41-1.03 c0.2,0.03,0.4,0.05,0.58,0.08c-4.53-3.55-8.63-9.29-11.72-15.35c-3.27-6.39-5.42-13.15-5.78-18.04 c-2.9,5.86-8.11,15.25-22.53,22.92c-0.02,0-0.03,0.02-0.05,0.02l-0.12,0.05c-0.15,0.07-0.17,0.06-0.2,0.1 C5,73.06,5.04,73.06,5,73.15c0,0.02,0.01-0.04-0.12,0.27c-0.1,0.21-0.26,0.36-0.44,0.45L4.42,73.89L4.42,73.89z M42.07,67.41 c0.3,2.2-1.32,6.45-2.64,6.7c2.92,4.18,6.26,7.7,9.76,9.58c0.2-0.01,0.36-0.01,0.53-0.04c0.31-0.06,0.6-0.17,0.91-0.43 c0.62-0.84,0.92-2.04,0.97-3.52c0.11-4.54-2.3-11.32-5.67-17.7c-3.36-6.39-7.67-12.34-11.32-15.22c-1.34-1.05-2.56-1.67-3.52-1.68 c-0.25,0-0.39,0-0.46,0.05c-0.07,0.04-0.19,0.17-0.36,0.39c-0.08,0.1-0.17,0.22-0.26,0.36C30,45.94,30,45.95,29.99,45.99 c-1.07,3.3,0.34,9.89,3.25,16.77c1.38-0.89,8.08-1.02,8.85,4.64L42.07,67.41L42.07,67.41z M49.34,85.48 c-0.19,0.06-0.38,0.07-0.59-0.01c-0.16-0.01-0.34-0.02-0.52-0.04c-1.19-0.09-2.38-0.25-3.66-0.43c-4.36-0.62-9.84-1.41-18.18,0.85 c-0.16,0.76-0.26,1.65-0.17,2.42c0.08,0.56,0.25,1.02,0.58,1.26l0.16,0.1c0.71,0.49,1.07,0.73,1.3,1.29 c0.21,0.47,0.21,0.99,0.22,1.99l0,0.38c0.01,1.27,0.66,1.45,1.3,1.63c0.84,0.23,1.67,0.45,2.21,1.49c0.09,0.15,0.13,0.32,0.13,0.52 c-0.1,1.88-1.11,3.02-2.12,4.14c-0.22,0.24-0.45,0.51-0.65,0.75l-0.05,0.06c-2.21,2.32-3.99,2-5.51,0.56 c-1.09-1.03-1.94-2.67-2.76-4.19c-0.07-0.13-0.14-0.27-0.34-0.63c-1.23-2.3-2.3-5.18-3.41-8.14l-0.11-0.31 c-0.32,0.15-0.66,0.29-0.98,0.44c-0.66,0.3-1.3,0.59-1.9,0.89c-0.09,0.03-0.13,0.07-0.17,0.09c-0.4,0.22-0.56,0.33-0.96,0.2 c-3.49,1.57-6.79,0.22-9.22-2.35c-1-1.06-1.86-2.34-2.51-3.7c-0.65-1.36-1.1-2.82-1.32-4.24c-0.5-3.39,0.37-6.58,3.23-8.05 c0.11-0.27,0.18-0.4,0.35-0.59c0.19-0.2,0.36-0.28,0.69-0.47l0.12-0.05c0.02,0,0.03-0.02,0.03-0.02 c14.82-7.87,19.56-17.63,22.27-23.19c0.75-1.55,1.35-2.78,2.01-3.64c0.32-0.42,0.57-0.69,0.94-0.88c0.37-0.19,0.77-0.27,1.33-0.25 c1.4,0.02,2.95,0.78,4.6,2.07c3.85,3.03,8.33,9.19,11.79,15.78c3.48,6.61,5.99,13.7,5.87,18.56c-0.05,1.89-0.47,3.48-1.39,4.63 c-0.03,0.04-0.06,0.08-0.11,0.1c-0.61,0.55-1.21,0.81-1.86,0.92c-0.23,0.03-0.46,0.06-0.67,0.07L49.34,85.48L49.34,85.48z M67.41,21.43l5.89-5.48c-0.12-0.22-0.21-0.46-0.28-0.7c0,0,0,0,0,0c-0.66-2.19,0.59-4.5,2.78-5.16c2.19-0.66,4.5,0.59,5.16,2.78 c0.66,2.19-0.59,4.5-2.78,5.16c-0.87,0.26-1.75,0.22-2.55-0.05l-6.19,5.76c0.02,0.07,0.05,0.14,0.07,0.21 c0.04,0.12,0.07,0.24,0.09,0.37l7.67,1.3c0.51-0.87,1.34-1.57,2.39-1.88c2.19-0.66,4.5,0.59,5.16,2.78 c0.66,2.19-0.59,4.5-2.78,5.16c-2.19,0.66-4.5-0.59-5.16-2.78c-0.02-0.08-0.05-0.17-0.07-0.25l-7.76-1.31 c-0.51,0.83-1.32,1.48-2.33,1.78c-2.19,0.66-4.5-0.59-5.16-2.78c-0.66-2.19,0.59-4.5,2.78-5.16C65.41,20.84,66.5,20.97,67.41,21.43 L67.41,21.43L67.41,21.43z M104.77,66.44l5.07-0.65c1.54-0.2,2.97,0.9,3.17,2.45l0.64,4.96c0.2,1.55-0.9,2.97-2.45,3.17l-2.18,0.28 c0.47,1.2,0.99,2.26,2.28,3.13c-2.28-0.28-4.13-1.2-5.6-2.71l-0.38,0.05c-0.15,0.02-0.3,0.03-0.46,0.03 c0.75-0.78,1.22-1.71,1.1-2.63l-0.27-2.07l-0.24-1.87l-0.4-3.09C105,67.12,104.9,66.77,104.77,66.44L104.77,66.44L104.77,66.44z M90.69,66.03l7.85-1.01l0,0c2.14-0.27,4.11,1.25,4.39,3.39l0,0v0l0,0l0.72,5.61l0,0l0,0l0,0c0.15,1.14-0.52,2.24-1.49,3.07 c-0.9,0.77-2.1,1.34-3.1,1.47l0,0h0l0,0l-0.08,0.01c-0.59,0.97-1.32,1.83-2.18,2.57c-0.95,0.82-2.07,1.49-3.35,1.99l0,0 c-0.24,0.09-0.52,0.06-0.73-0.13c-0.3-0.26-0.33-0.71-0.07-1.01c0.51-0.59,0.82-1.17,1.03-1.76c0.11-0.33,0.2-0.67,0.26-1.02 l-1.53,0.2l0,0c-1.07,0.14-2.1-0.17-2.89-0.79c-0.79-0.61-1.35-1.53-1.49-2.6l0,0l0,0l0,0l-0.72-5.61l0,0v0l0,0 C87.03,68.28,88.55,66.31,90.69,66.03L90.69,66.03L90.69,66.03L90.69,66.03z"/></g></svg>